<?xml version="1.0" encoding="UTF-8"?>
<svg id="Réteg_2" data-name="Réteg 2" xmlns="http://www.w3.org/2000/svg" xmlns:xlink="http://www.w3.org/1999/xlink" viewBox="0 0 681 681">
  <defs>
    <style>
      .cls-1, .cls-2 {
        fill: #83c0a7;
      }

      .cls-3 {
        clip-path: url(#clippath);
      }

      .cls-2, .cls-4 {
        stroke-width: 0px;
      }

      .cls-5 {
        fill: none;
        stroke: #f39eb6;
        stroke-miterlimit: 10;
        stroke-width: 4px;
      }

      .cls-4 {
        fill: #fff;
      }
    </style>
    <clipPath id="clippath">
      <path class="cls-2" d="M638.96,331.53c0,61.83-13.21,109.23-41.61,159.28-5.45,9.6-3.06,42.69-3.06,42.69.87,6.27,5.27,12.49,5.04,18.24-.11,2.81,1.45,6.36.34,8.45-1.23,2.3-5.21,3.09-6.88,5.12-1.54,1.87-2.43,4.44-4.29,6.01-2.35,1.97-5.99,6.28-8.8,7.54-6.69,3.01-10.31,5.97-11.28,6.89-1.7,1.62-6.14,5.36-6.76,5.51-5.67,1.36-5.72-1.51-8.31,1.62-4.2,5.06-19.1-3.07-23.85-4.56-12.32-3.84-17.9-4.09-19.31-2.99-3.94,3.06-6.26,1.94-6.26,1.94,0,0,4.07,14.89,1.9,19.33-2.35,4.81-12.68,20.9-21.5,26.52-2.83,1.8-9.99,2.4-12.7,3.87-3.72,2.02-6.84,6.29-10.33,7.66-1.63.64-3.72-1.75-5.3-1.23s-3,2.3-4.47,2.67c-2.45.63-3.55-1.67-5.86-1.34-7.2,1.04-19.32-10.02-26.47-25.23,0,0-51.5,10.18-78.71,10.18-169.39,0-300.78-128.6-300.78-297.83,0,0,131.87-.35,300.78-.35s298.46,0,298.46,0Z"/>
    </clipPath>
  </defs>
  <g id="MOCKUP_2">
    <g>
      <path class="cls-5" d="M679,340.5c0,29.41-23.53,55.34-30.78,82.46-7.5,28.07-.31,62.24-14.53,86.82-14.42,24.93-47.75,35.7-67.98,55.93-20.23,20.23-31.01,53.56-55.93,67.98-24.57,14.22-58.75,7.03-86.82,14.53s-53.05,30.78-82.46,30.78-55.34-23.53-82.46-30.78-62.24-.31-86.82-14.53c-24.93-14.42-35.7-47.75-55.93-67.98-20.23-20.23-53.56-31.01-67.98-55.93-14.22-24.57-7.03-58.75-14.53-86.82-7.25-27.13-30.78-53.05-30.78-82.46s23.53-55.34,30.78-82.46.31-62.24,14.53-86.82c14.42-24.93,47.75-35.7,67.98-55.93,20.23-20.23,31.01-53.56,55.93-67.98,24.57-14.22,58.75-7.03,86.82-14.53S311.09,2,340.5,2s55.34,23.53,82.46,30.78c28.07,7.5,62.24.31,86.82,14.53s35.7,47.75,55.93,67.98c20.23,20.23,53.56,31.01,67.98,55.93,14.22,24.57,7.03,58.75,14.53,86.82s30.78,53.05,30.78,82.46Z"/>
      <circle class="cls-4" cx="339.34" cy="331.53" r="299.62"/>
      <g>
        <path class="cls-1" d="M638.96,331.53c0,61.83-13.21,109.23-41.61,159.28-5.45,9.6-3.06,42.69-3.06,42.69.87,6.27,5.27,12.49,5.04,18.24-.11,2.81,1.45,6.36.34,8.45-1.23,2.3-5.21,3.09-6.88,5.12-1.54,1.87-2.43,4.44-4.29,6.01-2.35,1.97-5.99,6.28-8.8,7.54-6.69,3.01-10.31,5.97-11.28,6.89-1.7,1.62-6.14,5.36-6.76,5.51-5.67,1.36-5.72-1.51-8.31,1.62-4.2,5.06-19.1-3.07-23.85-4.56-12.32-3.84-17.9-4.09-19.31-2.99-3.94,3.06-6.26,1.94-6.26,1.94,0,0,4.07,14.89,1.9,19.33-2.35,4.81-12.68,20.9-21.5,26.52-2.83,1.8-9.99,2.4-12.7,3.87-3.72,2.02-6.84,6.29-10.33,7.66-1.63.64-3.72-1.75-5.3-1.23s-3,2.3-4.47,2.67c-2.45.63-3.55-1.67-5.86-1.34-7.2,1.04-19.32-10.02-26.47-25.23,0,0-51.5,10.18-78.71,10.18-169.39,0-300.78-128.6-300.78-297.83,0,0,131.87-.35,300.78-.35s298.46,0,298.46,0Z"/>
        <g class="cls-3">
          <image width="2048" height="2048" transform="translate(720.24 703.03) rotate(-180) scale(.37)" xlink:href="../../kepek/Firefly rózsaszín torta, teljesen felülnézetből, fehér háttér, a torta legyen tükörglazúros és legye.jpg"/>
        </g>
      </g>
    </g>
  </g>
</svg>