<?xml version="1.0" encoding="UTF-8"?>
<svg id="Réteg_2" data-name="Réteg 2" xmlns="http://www.w3.org/2000/svg" viewBox="0 0 100 118.73">
  <defs>
    <style>
      .cls-1 {
        fill: #8ca8a3;
        stroke-width: 0px;
      }
    </style>
  </defs>
  <g id="misc">
    <path class="cls-1" d="M52.59.07c-14.83-.75-28.34,4.97-37.95,14.58C5.6,23.69,0,36.19,0,50s5.26,25.53,13.8,34.5l.42.43.85.85.43.42,31.12,31.13c1.87,1.87,4.89,1.87,6.76,0l31.97-31.97c9.61-9.61,15.33-23.12,14.58-37.95C98.65,22,78,1.35,52.59.07ZM52.03,74.92c-15.41,1.21-28.16-11.54-26.95-26.95.95-12.12,10.77-21.94,22.89-22.89,15.41-1.21,28.16,11.54,26.95,26.95-.95,12.12-10.77,21.94-22.89,22.89Z"/>
  </g>
</svg>