<?xml version="1.0" encoding="UTF-8"?>
<svg id="Réteg_2" data-name="Réteg 2" xmlns="http://www.w3.org/2000/svg" viewBox="0 0 100 100">
  <defs>
    <style>
      .cls-1 {
        fill: #8ca8a3;
        stroke-width: 0px;
      }
    </style>
  </defs>
  <g id="misc">
    <path class="cls-1" d="M50,0C22.38,0,0,22.39,0,50s22.38,50,50,50,50-22.38,50-50S77.61,0,50,0ZM81.92,69.12c-.32,3.09-1.43,6.06-3.83,8.82-.08.09-.16.18-.25.26-3.15,2.9-7.53,4.19-13.28,3.65-7.06-.3-14.72-3.51-22.9-9.22-7.29-5.64-13.8-12.51-18.86-21.65-2.86-5.38-4.66-11.47-4.75-18.67,0-.13.01-.25.02-.37.44-4.48,2.08-8.22,5.36-10.96.14-.11.29-.22.44-.31,1.79-1.01,3.98-1.84,6.49-2.53,1.42-.38,2.92.28,3.59,1.59,1.76,3.42,4.16,9.87,6.39,15.52.46,1.15.18,2.48-.7,3.36l-4.08,4.08c-1.22,1.22-1.22,3.2,0,4.43l17.54,17.54c1.29,1.28,3.39,1.19,4.58-.18,1.25-1.43,2.58-2.77,4.03-3.98.86-.72,2.04-.93,3.09-.54,5.91,2.16,12.12,4.38,15.44,6.08,1.14.58,1.81,1.8,1.68,3.08Z"/>
  </g>
</svg>